<svg version="1" xmlns="http://www.w3.org/2000/svg" width="1333.333" height="1333.333" viewBox="0 0 1000.000000 1000.000000" preserveAspectRatio="xMidYMid meet"><metadata>Created by potrace 1.11, written by Peter Selinger 2001-2013</metadata><g fill="#000" stroke="none"><path d="M3739 9275 c0 0 -1 -209 -2 -465 l-2 -465 -477 -3 -477 -2 -1 -3445 0 -3445 478 0 479 0 1 -392 c0 -216 1 -399 1 -405 1 -10 69 -13 306 -13 l305 0 0 405 0 405 279 0 c257 0 279 -1 282 -18 3 -9 4 -191 3 -404 l-1 -388 307 0 307 0 -1 411 c-1 226 1 414 4 419 4 6 108 24 259 45 93 13 304 69 461 122 667 224 1108 663 1261 1254 46 179 58 289 54 524 -2 121 -6 236 -9 255 -17 101 -58 274 -76 315 -4 11 -20 52 -35 90 -104 275 -306 523 -567 697 -105 71 -187 114 -313 165 -156 64 -351 118 -495 138 -63 9 -82 15 -77 28 4 14 16 20 122 57 479 172 813 497 954 930 42 131 57 202 77 375 5 43 6 354 1 363 -3 4 -7 36 -11 72 -16 161 -82 373 -169 540 -212 405 -621 698 -1155 826 -123 30 -125 31 -189 39 -26 3 -59 8 -73 11 l-25 4 1 475 c0 333 -2 475 -10 478 -6 2 -144 3 -306 3 l-295 -1 -2 -455 c0 -250 -1 -460 -2 -467 -1 -9 -72 -12 -281 -12 l-280 0 0 468 0 467 -305 0 c-168 0 -305 -1 -306 -1z m1451 -1739 c140 -19 252 -44 350 -78 448 -158 692 -506 688 -980 -1 -89 -17 -231 -32 -283 -1 -5 -8 -29 -14 -52 -94 -329 -412 -571 -882 -671 -90 -19 -122 -25 -205 -37 -81 -12 -103 -14 -160 -20 -33 -3 -85 -8 -115 -11 -30 -3 -297 -7 -592 -10 l-538 -4 0 1078 0 1079 723 -2 c397 -1 747 -5 777 -9z m80 -2940 c58 -3 116 -8 130 -11 14 -2 48 -7 75 -10 28 -3 57 -7 65 -10 15 -4 51 -12 104 -21 16 -3 74 -20 130 -39 396 -128 644 -355 766 -700 16 -47 29 -87 29 -90 0 -3 2 -18 5 -33 24 -117 30 -179 29 -312 -3 -550 -308 -879 -957 -1030 -50 -11 -106 -23 -125 -26 -20 -3 -58 -9 -86 -14 -27 -5 -75 -12 -105 -15 -30 -3 -66 -7 -80 -9 -24 -4 -71 -8 -265 -22 -49 -4 -361 -7 -692 -8 l-603 -1 0 1176 c0 646 2 1178 4 1180 7 7 1462 2 1576 -5z" transform="translate(0.000000,1000.000000) scale(0.100000,-0.100000)"/></g></svg>